<?xml version="1.0" encoding="UTF-8" standalone="no"?>
<!DOCTYPE svg PUBLIC "-//W3C//DTD SVG 1.1//EN" "http://www.w3.org/Graphics/SVG/1.1/DTD/svg11.dtd">
<svg width="359px" height="359px" version="1.1" xmlns="http://www.w3.org/2000/svg" xmlns:xlink="http://www.w3.org/1999/xlink" xml:space="preserve" xmlns:serif="http://www.serif.com/" style="fill-rule:evenodd;clip-rule:evenodd;stroke-linecap:round;stroke-linejoin:round;stroke-miterlimit:1.5;">
    <g transform="matrix(1,0,0,1,-99.077,-980.835)">
        <g transform="matrix(1.07385,0,0,1.07385,34.277,243.807)">
            <circle cx="227.5" cy="853.5" r="162.5" style="fill:white;"/>
            <clipPath id="_clip1">
                <circle cx="227.5" cy="853.5" r="162.5"/>
            </clipPath>
            <g clip-path="url(#_clip1)">
                <g transform="matrix(0.931232,0,0,0.931232,-24.7358,8.80042)">
                    <g transform="matrix(-1,1.22465e-16,-1.39403e-16,-1.13831,402,2240.3)">
                        <path d="M233,1088L167,1088L183.5,998.82L213.851,998.82C213.851,998.82 216.95,1026.35 219.999,1040.55C223.191,1055.41 233,1088 233,1088Z" style="fill:rgb(76,98,114);stroke:black;stroke-width:9.33px;"/>
                    </g>
                    <g transform="matrix(1,1.22465e-16,1.39403e-16,-1.13831,143,2240.3)">
                        <path d="M233,1088L167,1088L183.5,998.82L213.851,998.82C213.851,998.82 216.95,1026.35 219.999,1040.55C223.191,1055.41 233,1088 233,1088Z" style="fill:rgb(76,98,114);stroke:black;stroke-width:9.33px;"/>
                    </g>
                    <g transform="matrix(1,0,0,1,-615,5)">
                        <path d="M884.5,771.661L884.5,793" style="fill:none;stroke:black;stroke-width:10px;"/>
                    </g>
                    <g transform="matrix(2.44828,0,0,1.72506,-1495.43,-307.052)">
                        <ellipse cx="693.5" cy="757" rx="14.5" ry="16" style="fill:rgb(76,98,114);stroke:black;stroke-width:4.72px;"/>
                    </g>
                    <g transform="matrix(2.44828,0,0,1.72506,-1355.88,-307.052)">
                        <ellipse cx="693.5" cy="757" rx="14.5" ry="16" style="fill:rgb(76,98,114);stroke:black;stroke-width:4.72px;"/>
                    </g>
                    <g transform="matrix(2.44828,0,0,1.72506,-1498.15,-210.052)">
                        <ellipse cx="693.5" cy="757" rx="14.5" ry="16" style="fill:rgb(76,98,114);stroke:black;stroke-width:4.72px;"/>
                    </g>
                    <g transform="matrix(2.44828,0,0,1.72506,-1358.6,-210.052)">
                        <ellipse cx="693.5" cy="757" rx="14.5" ry="16" style="fill:rgb(76,98,114);stroke:black;stroke-width:4.72px;"/>
                    </g>
                    <g transform="matrix(1.04403,0,0,1.0438,-455.368,-23.9645)">
                        <path d="M777,977.25L767.422,1045.75C767.422,1064.65 752.078,1080 733.179,1080L661.821,1080C642.922,1080 627.578,1064.65 627.578,1045.75L618,977.25C618,958.347 633.344,943 652.242,943L742.758,943C761.656,943 777,958.347 777,977.25Z" style="fill:rgb(76,98,114);"/>
                    </g>
                    <g transform="matrix(0.914084,0,0,1.0438,-354.404,-23.9645)">
                        <path d="M777,977.25L767.422,1045.75C767.422,1064.65 752.078,1080 733.179,1080L661.821,1080C642.922,1080 627.578,1064.65 627.578,1045.75L618,977.25C618,958.347 633.344,943 652.242,943L742.758,943C761.656,943 777,958.347 777,977.25Z" style="fill:rgb(240,244,245);"/>
                    </g>
                    <g transform="matrix(0.814465,0,0,1.0438,-292.84,-23.9645)">
                        <path d="M777,977.25L767.422,1045.75C767.422,1064.65 752.078,1080 733.179,1080L661.821,1080C642.922,1080 627.578,1064.65 627.578,1045.75L618,977.25C618,958.347 633.344,943 652.242,943L742.758,943C761.656,943 777,958.347 777,977.25Z" style="fill:rgb(174,183,189);"/>
                    </g>
                    <g transform="matrix(1.04403,0,0,1.0438,-455.368,-23.9645)">
                        <path d="M777,977.25L767.422,1045.75C767.422,1064.65 752.078,1080 733.179,1080L661.821,1080C642.922,1080 627.578,1064.65 627.578,1045.75L618,977.25C618,958.347 633.344,943 652.242,943L742.758,943C761.656,943 777,958.347 777,977.25Z" style="fill:none;stroke:black;stroke-width:9.58px;"/>
                    </g>
                    <g transform="matrix(1,0,0,1.5625,-353.5,-308.813)">
                        <ellipse cx="693.5" cy="757" rx="14.5" ry="16" style="fill:rgb(76,98,114);stroke:black;stroke-width:7.62px;"/>
                    </g>
                    <g transform="matrix(1,0,0,1.5625,-491.5,-308.813)">
                        <ellipse cx="693.5" cy="757" rx="14.5" ry="16" style="fill:rgb(76,98,114);stroke:black;stroke-width:7.62px;"/>
                    </g>
                    <g transform="matrix(1.02222,0,0,1.01408,-439.956,-8.19718)">
                        <path d="M695.5,795C747.428,795 763,826.814 763,866C763,905.186 762.102,937 695.5,937C628.898,937 628,905.186 628,866C628,826.814 643.572,795 695.5,795Z" style="fill:rgb(240,244,245);"/>
                    </g>
                    <g transform="matrix(0.888889,0,0,1.01408,-356.222,-8.19718)">
                        <path d="M695.5,795C747.428,795 763,826.814 763,866C763,905.186 762.102,937 695.5,937C628.898,937 628,905.186 628,866C628,826.814 643.572,795 695.5,795Z" style="fill:rgb(76,98,114);"/>
                    </g>
                    <g transform="matrix(0.748148,0,0,1.01408,-248.837,-8.19718)">
                        <path d="M695.5,795C747.428,795 763,826.814 763,866C763,905.186 762.102,937 695.5,937C628.898,937 628,905.186 628,866C628,826.814 643.572,795 695.5,795Z" style="fill:rgb(174,183,189);"/>
                    </g>
                    <g transform="matrix(9.71272e-17,1.58621,-2.24442,1.37431e-16,1971.86,-144.365)">
                        <path d="M693.5,741C701.503,741 708,748.169 708,757C708,765.831 701.503,773 693.5,773C690.367,773 684.944,772.919 684.944,772.919C684.944,772.919 688.141,765.251 688.141,757C688.141,748.907 684.882,741.163 684.882,741.163C684.882,741.163 690.302,741 693.5,741Z" style="fill:rgb(76,98,114);stroke:black;stroke-width:5.15px;"/>
                    </g>
                    <g transform="matrix(1,0,0,0.8125,-424,148.598)">
                        <ellipse cx="693.5" cy="757" rx="14.5" ry="16" style="fill:rgb(0,94,184);stroke:black;stroke-width:10.98px;"/>
                    </g>
                    <g transform="matrix(0.637931,0,0,0.40625,-172.905,452.629)">
                        <ellipse cx="693.5" cy="757" rx="14.5" ry="16" style="fill:rgb(0,169,206);"/>
                    </g>
                    <g transform="matrix(0.864532,0,0,1.09375,-350.089,29.5313)">
                        <ellipse cx="693.5" cy="757" rx="14.5" ry="16"/>
                    </g>
                    <g transform="matrix(0.864532,0,0,1.09375,-303.339,29.5313)">
                        <ellipse cx="693.5" cy="757" rx="14.5" ry="16"/>
                    </g>
                    <g transform="matrix(1,0,0,1,-430.036,5)">
                        <path d="M676,891C676,891 681.04,906 702.999,906C725.957,906 729.75,891 729.75,891" style="fill:none;stroke:black;stroke-width:10px;"/>
                    </g>
                    <g transform="matrix(1.02222,0,0,1.01408,-439.956,-8.19718)">
                        <path d="M695.5,795C747.428,795 763,826.814 763,866C763,905.186 762.102,937 695.5,937C628.898,937 628,905.186 628,866C628,826.814 643.572,795 695.5,795Z" style="fill:none;stroke:black;stroke-width:9.82px;"/>
                    </g>
                    <g transform="matrix(0.867391,0,0,0.867391,38.623,142.305)">
                        <g transform="matrix(7.1875,0,0,8.1877,-1373.13,-7118.36)">
                            <path d="M237,991.5L237,994.5C237,995.328 236.234,996 235.291,996L222.709,996C221.766,996 221,995.328 221,994.5L221,991.5C221,990.672 221.766,990 222.709,990L235.291,990C236.234,990 237,990.672 237,991.5Z" style="fill:rgb(0,94,184);stroke:white;stroke-width:0.37px;"/>
                        </g>
                        <g transform="matrix(1.10345,0,0,1.33333,-26.9802,-335.121)">
                            <rect x="228" y="997" width="87" height="27" style="fill:white;"/>
                        </g>
                        <g transform="matrix(1.39776,0,0,1.39776,173.287,915.368)">
                            <path d="M106.394,83.324L106.394,54.977L36,54.977L36,83.324L106.394,83.324ZM64.302,57.712L59.443,80.529L51.817,80.529L47.022,64.741L46.957,64.741L43.768,80.529L37.985,80.529L42.883,57.712L50.535,57.712L55.235,73.534L55.299,73.534L58.519,57.712L64.302,57.712ZM86.114,57.712L81.349,80.529L75.208,80.529L77.245,70.756L69.981,70.756L67.944,80.529L61.803,80.529L66.568,57.712L72.709,57.712L70.905,66.441L78.164,66.441L79.972,57.712L86.114,57.712ZM103.757,58.335L102.276,62.878C101.094,62.324 99.484,61.834 97.218,61.834C94.788,61.834 92.816,62.19 92.816,64.024C92.816,67.257 101.72,66.05 101.72,72.98C101.72,79.288 95.837,80.924 90.516,80.924C88.151,80.924 85.423,80.365 83.421,79.743L84.866,75.101C86.079,75.887 88.513,76.411 90.516,76.411C92.423,76.411 95.41,76.05 95.41,73.698C95.41,70.035 86.506,71.409 86.506,64.973C86.506,59.086 91.698,57.321 96.726,57.321C99.553,57.321 102.212,57.618 103.757,58.335Z" style="fill:rgb(0,94,184);fill-rule:nonzero;"/>
                        </g>
                    </g>
                </g>
            </g>
        </g>
        <g transform="matrix(1.07385,0,0,1.07385,34.277,243.807)">
            <circle cx="227.5" cy="853.5" r="162.5" style="fill:none;stroke:rgb(118,134,146);stroke-width:9.31px;"/>
        </g>
    </g>
</svg>
